<svg xmlns="http://www.w3.org/2000/svg" viewBox="0 0 1080 1080" fill="none">
  <rect x="90" y="90" width="900" height="900" rx="220" fill="#fff"/>
  <path d="M750 846H330C252.68 846 190 783.32 190 706V645.065C190 547.029 288.162 479.352 379.789 514.218L489.835 556.092C521.869 568.281 557.262 568.296 589.305 556.133L700.319 513.996C791.929 479.224 890 546.898 890 644.885V706C890 783.32 827.32 846 750 846Z" fill="#0F131C"/>
  <path d="M489.867 498.133L247.748 406.215C212.985 393.018 190 359.705 190 322.522C190 273.08 230.08 233 279.522 233H800.692C850.015 233 890 272.985 890 322.308C890 359.4 867.073 392.631 832.397 405.799L589.257 498.129C557.242 510.286 521.882 510.288 489.867 498.133Z" fill="#0F131C"/>
</svg>
